<svg width="123" height="104" viewBox="0 0 123 104" fill="none" xmlns="http://www.w3.org/2000/svg">
<path d="M69.9158 0L123 49.8474L69.9158 99.6947L16.8315 49.8474L69.9158 0Z" fill="#0AAD5C"/>
<path d="M98.4 41.4316H82.8632V20.7158H10.3579C4.66105 20.7158 0 25.3769 0 31.0737V88.0421H10.3579C10.3579 96.6392 17.2977 103.579 25.8947 103.579C34.4918 103.579 41.4316 96.6392 41.4316 88.0421H72.5053C72.5053 96.6392 79.4451 103.579 88.0421 103.579C96.6392 103.579 103.579 96.6392 103.579 88.0421H113.937V62.1474L98.4 41.4316ZM25.8947 95.8106C21.5962 95.8106 18.1263 92.3407 18.1263 88.0421C18.1263 83.7436 21.5962 80.2737 25.8947 80.2737C30.1933 80.2737 33.6632 83.7436 33.6632 88.0421C33.6632 92.3407 30.1933 95.8106 25.8947 95.8106ZM95.8105 49.2L105.961 62.1474H82.8632V49.2H95.8105ZM88.0421 95.8106C83.7436 95.8106 80.2737 92.3407 80.2737 88.0421C80.2737 83.7436 83.7436 80.2737 88.0421 80.2737C92.3406 80.2737 95.8105 83.7436 95.8105 88.0421C95.8105 92.3407 92.3406 95.8106 88.0421 95.8106Z" fill="white"/>
</svg>
