<svg width="107" height="104" viewBox="0 0 107 104" fill="none" xmlns="http://www.w3.org/2000/svg">
<path d="M53.9158 0L107 49.8474L53.9158 99.6947L0.831543 49.8474L53.9158 0Z" fill="#0AAD5C"/>
<path fill-rule="evenodd" clip-rule="evenodd" d="M82.2984 41.4316H66.7616V20.7158H30.9299L0.398438 50L41.2184 88.0421H56.4037C56.4037 96.6392 63.3435 103.579 71.9405 103.579C80.5376 103.579 87.4774 96.6392 87.4774 88.0421H97.8353V62.1474L82.2984 41.4316ZM89.8597 62.1474L79.709 49.2H66.7616V62.1474H89.8597ZM64.1721 88.0421C64.1721 92.3406 67.642 95.8105 71.9405 95.8105C76.2391 95.8105 79.709 92.3406 79.709 88.0421C79.709 83.7436 76.2391 80.2737 71.9405 80.2737C67.642 80.2737 64.1721 83.7436 64.1721 88.0421Z" fill="white"/>
</svg>
