<svg width="34" height="41" viewBox="0 0 34 41" fill="none" xmlns="http://www.w3.org/2000/svg">
<path d="M17 41C19.3375 41 21.25 39.1077 21.25 36.7949H12.75C12.75 39.1077 14.6625 41 17 41ZM29.75 28.3846V17.8718C29.75 11.4169 26.2862 6.01333 20.1875 4.58359V3.15385C20.1875 1.40872 18.7637 0 17 0C15.2363 0 13.8125 1.40872 13.8125 3.15385V4.58359C7.735 6.01333 4.25 11.3959 4.25 17.8718V28.3846L0 32.5897V34.6923H34V32.5897L29.75 28.3846ZM25.5 30.4872H8.5V17.8718C8.5 12.6574 11.7087 8.41026 17 8.41026C22.2913 8.41026 25.5 12.6574 25.5 17.8718V30.4872Z" fill="black"/>
</svg>
